<?xml version="1.0" encoding="UTF-8"?>
<!-- Do not edit this file with editors other than diagrams.net -->
<svg xmlns="http://www.w3.org/2000/svg" xmlns:xlink="http://www.w3.org/1999/xlink" version="1.1" width="100px" height="100px" viewBox="-0.5 -0.5 131 111" content="&lt;mxfile host=&quot;app.diagrams.net&quot; modified=&quot;2023-04-11T20:51:45.254Z&quot; agent=&quot;Mozilla/5.0 (Windows NT 10.0; Win64; x64) AppleWebKit/537.36 (KHTML, like Gecko) Chrome/112.0.0.0 Safari/537.36&quot; etag=&quot;w3LHa1b4nls7c1nMmMHA&quot; version=&quot;21.1.6&quot;&gt;&#10;  &lt;diagram name=&quot;Page-1&quot; id=&quot;Q7H_IYTE8DTKTw0yAEUr&quot;&gt;&#10;    &lt;mxGraphModel dx=&quot;794&quot; dy=&quot;442&quot; grid=&quot;1&quot; gridSize=&quot;10&quot; guides=&quot;1&quot; tooltips=&quot;1&quot; connect=&quot;1&quot; arrows=&quot;1&quot; fold=&quot;1&quot; page=&quot;1&quot; pageScale=&quot;1&quot; pageWidth=&quot;827&quot; pageHeight=&quot;1169&quot; math=&quot;0&quot; shadow=&quot;0&quot;&gt;&#10;      &lt;root&gt;&#10;        &lt;mxCell id=&quot;0&quot; /&gt;&#10;        &lt;mxCell id=&quot;1&quot; parent=&quot;0&quot; /&gt;&#10;        &lt;mxCell id=&quot;cqG6EmU4eFndEv2MXqd--1&quot; value=&quot;&quot; style=&quot;verticalLabelPosition=bottom;html=1;verticalAlign=top;align=center;strokeColor=none;fillColor=#00BEF2;shape=mxgraph.azure.automation;pointerEvents=1;&quot; vertex=&quot;1&quot; parent=&quot;1&quot;&gt;&#10;          &lt;mxGeometry x=&quot;220&quot; y=&quot;120&quot; width=&quot;100&quot; height=&quot;110&quot; as=&quot;geometry&quot; /&gt;&#10;        &lt;/mxCell&gt;&#10;      &lt;/root&gt;&#10;    &lt;/mxGraphModel&gt;&#10;  &lt;/diagram&gt;&#10;&lt;/mxfile&gt;&#10;" resource="https://app.diagrams.net/"><defs/><g><rect x="0" y="0" width="130" height="110" fill="none" stroke="none" pointer-events="all"/><path d="M 69.03 52.27 L 86.45 0 C 94.13 0.67 101.56 2.91 108.22 6.57 L 86.31 43.11 L 99.64 42.98 L 69.95 74.7 L 79.85 52.27 Z M 74.83 23.91 C 60.37 26.26 49.64 37.81 49.13 51.58 C 48.62 65.35 58.46 77.57 72.72 80.86 C 86.97 84.15 101.74 77.61 108.09 65.19 C 114.44 52.76 110.64 37.86 98.98 29.48 L 106.64 18.95 L 112.18 15.86 L 119.18 22.3 L 113.37 31.34 L 116.14 36.3 L 127.36 36.05 L 130 44.72 L 120.1 49.67 L 120.1 55.5 L 129.87 60.45 L 127.49 69.12 L 116.01 68.87 L 113.24 74.08 L 119.05 82.75 L 112.05 89.31 L 102.55 83.74 L 97.53 86.34 L 97.66 96.99 L 88.43 99.47 L 83.02 90.18 L 77.08 90.18 L 71.66 99.47 L 62.29 96.99 L 62.69 86.46 L 57.41 83.74 L 47.51 89.31 L 40.91 82.75 L 46.85 73.7 L 43.95 68.87 L 32.6 69.12 L 30.36 60.33 L 39.99 55.37 L 39.99 49.8 L 30.22 44.84 L 32.73 36.05 L 43.95 36.3 L 46.85 31.34 L 40.91 22.42 L 47.78 16.1 L 57.68 21.31 L 62.56 18.83 L 62.43 8.05 L 71.53 5.7 L 77.08 14.86 Z M 23.49 70.36 L 25.47 76.06 L 29.04 77.3 L 34.31 74.7 L 37.61 77.79 L 34.97 83 L 36.69 86.34 L 42.23 88.07 L 42.5 92.41 L 36.82 94.27 L 34.97 97.36 L 37.88 102.57 L 34.58 105.66 L 29.17 103.43 L 25.47 104.67 L 23.76 110 L 19.01 110 L 17.03 104.8 L 13.59 103.31 L 8.05 106.04 L 4.62 102.82 L 7.26 97.74 L 6.2 94.64 L 0 92.53 L 0.26 88.2 L 5.81 86.34 L 7.39 83.12 L 4.49 78.04 L 7.79 74.7 L 13.59 77.3 L 16.89 76.06 L 18.61 70.61 L 23.1 70.36 Z M 21.51 83.74 C 19.59 83.74 17.74 84.46 16.38 85.73 C 15.02 87.01 14.25 88.74 14.25 90.55 C 14.25 92.36 15.02 94.09 16.38 95.37 C 17.74 96.65 19.59 97.36 21.51 97.36 C 25.52 97.36 28.77 94.31 28.77 90.55 C 28.77 86.79 25.52 83.74 21.51 83.74" fill="#00bef2" stroke="none" pointer-events="all"/></g></svg>