<svg xmlns="http://www.w3.org/2000/svg" viewBox="-200 0 900 300"  version="1.1" width="536px" height="465px" style="shape-rendering:geometricPrecision; text-rendering:geometricPrecision; image-rendering:optimizeQuality; fill-rule:evenodd; clip-rule:evenodd" xmlns:xlink="http://www.w3.org/1999/xlink">
<g><path style="opacity:0.804" fill="#fed9bc" d="M 156.5,5.5 C 154.585,5.21552 152.919,5.54885 151.5,6.5C 149.375,5.63242 149.209,4.63242 151,3.5C 153.03,3.95374 154.863,4.62041 156.5,5.5 Z"/></g>
<g><path style="opacity:0.018" fill="#feeadb" d="M 157.5,5.5 C 160.781,5.42032 163.781,6.08699 166.5,7.5C 163.219,7.57968 160.219,6.91301 157.5,5.5 Z"/></g>
<g><path style="opacity:1" fill="#f7984b" d="M 156.5,5.5 C 156.833,5.5 157.167,5.5 157.5,5.5C 160.219,6.91301 163.219,7.57968 166.5,7.5C 168.292,7.36596 169.958,7.69929 171.5,8.5C 172.745,15.4585 173.245,22.4585 173,29.5C 172.292,28.6195 171.458,27.9528 170.5,27.5C 169.542,27.0472 168.708,26.3805 168,25.5C 163.572,30.7212 159.405,36.0545 155.5,41.5C 152.64,43.2968 151.307,45.9634 151.5,49.5C 151.204,51.403 150.537,53.0697 149.5,54.5C 148.069,55.7804 147.402,57.4471 147.5,59.5C 147.737,60.791 147.404,61.791 146.5,62.5C 144.96,64.8383 144.294,67.5049 144.5,70.5C 143.883,70.6107 143.383,70.944 143,71.5C 142.503,74.146 142.336,76.8127 142.5,79.5C 140.912,87.277 140.246,95.277 140.5,103.5C 138.901,103.232 137.568,103.566 136.5,104.5C 135.833,104.5 135.167,104.5 134.5,104.5C 131.5,104.5 128.5,104.5 125.5,104.5C 125.41,94.4815 125.743,84.4815 126.5,74.5C 126.753,70.9601 127.419,67.6267 128.5,64.5C 130.472,61.9164 131.472,58.9164 131.5,55.5C 131.5,55.1667 131.5,54.8333 131.5,54.5C 133.834,52.8243 134.834,50.491 134.5,47.5C 134.5,47.1667 134.5,46.8333 134.5,46.5C 136.913,45.3202 137.913,43.3202 137.5,40.5C 138.41,37.0078 140.076,34.0078 142.5,31.5C 143.906,31.0269 144.573,30.0269 144.5,28.5C 145.906,28.0269 146.573,27.0269 146.5,25.5C 147.906,25.0269 148.573,24.0269 148.5,22.5C 150.914,21.0892 152.581,19.0892 153.5,16.5C 153.859,14.629 154.859,13.129 156.5,12C 154.627,10.2962 152.96,8.46283 151.5,6.5C 152.919,5.54885 154.585,5.21552 156.5,5.5 Z"/></g>
<g><path style="opacity:0.541" fill="#fcd7b8" d="M 234.5,8.5 C 235.097,7.86137 235.93,7.52804 237,7.5C 238.376,7.68423 239.209,8.35089 239.5,9.5C 237.958,8.69929 236.292,8.36596 234.5,8.5 Z"/></g>
<g><path style="opacity:0.8" fill="#fec89e" d="M 234.5,8.5 C 231.201,10.4835 227.534,11.4835 223.5,11.5C 226.854,9.74241 230.521,8.74241 234.5,8.5 Z"/></g>
<g><path style="opacity:1" fill="#f79748" d="M 234.5,8.5 C 236.292,8.36596 237.958,8.69929 239.5,9.5C 239.427,11.0269 240.094,12.0269 241.5,12.5C 243.008,14.1815 244.008,16.1815 244.5,18.5C 243.518,21.9089 244.851,24.2423 248.5,25.5C 250.008,27.1815 251.008,29.1815 251.5,31.5C 253.988,33.3878 256.988,34.0545 260.5,33.5C 260.833,33.5 261.167,33.5 261.5,33.5C 265.313,34.7867 269.313,35.7867 273.5,36.5C 276.542,36.7329 279.208,37.7329 281.5,39.5C 281.5,40.5 281.5,41.5 281.5,42.5C 284.219,42.6025 286.885,42.2692 289.5,41.5C 291.253,39.3001 293.586,38.1334 296.5,38C 297.305,36.8873 297.972,35.7206 298.5,34.5C 298.973,33.0937 299.973,32.427 301.5,32.5C 303.027,32.573 304.027,31.9063 304.5,30.5C 304.842,29.6618 305.508,29.3284 306.5,29.5C 308.833,28.1667 311.167,28.1667 313.5,29.5C 316.5,31.8333 319.167,34.5 321.5,37.5C 321.678,38.6948 322.011,39.8615 322.5,41C 321.115,42.5971 320.449,44.4305 320.5,46.5C 317.234,52.8591 313.567,59.0258 309.5,65C 310.914,66.9935 311.914,69.1602 312.5,71.5C 312.415,74.6489 313.415,77.3155 315.5,79.5C 316.657,82.2727 317.324,85.2727 317.5,88.5C 316.92,92.649 317.586,96.3157 319.5,99.5C 322.76,100.774 325.76,102.44 328.5,104.5C 329.68,106.913 331.68,107.913 334.5,107.5C 336.483,108.471 338.483,109.471 340.5,110.5C 341.108,111.8 341.775,113.133 342.5,114.5C 341.777,116.782 341.443,119.116 341.5,121.5C 339.96,123.838 339.294,126.505 339.5,129.5C 330.25,130.472 320.917,130.805 311.5,130.5C 308.4,134.356 305.067,138.023 301.5,141.5C 300.094,141.973 299.427,142.973 299.5,144.5C 295.761,148.568 291.428,151.901 286.5,154.5C 285.2,156.223 284.533,158.39 284.5,161C 284.504,163.361 284.837,165.527 285.5,167.5C 285.466,171.859 285.799,176.192 286.5,180.5C 286.801,184.177 285.134,185.843 281.5,185.5C 278.505,185.294 275.838,185.96 273.5,187.5C 271.314,188.965 268.981,189.298 266.5,188.5C 262.219,180.937 258.219,173.271 254.5,165.5C 254.586,164.504 254.252,163.671 253.5,163C 249.179,162.501 244.846,162.334 240.5,162.5C 240.167,162.5 239.833,162.5 239.5,162.5C 237.898,160.926 235.898,160.259 233.5,160.5C 228.759,159.549 224.259,157.882 220,155.5C 212.407,159.712 204.907,164.045 197.5,168.5C 195.784,168.371 194.117,168.038 192.5,167.5C 188.833,164.5 185.5,161.167 182.5,157.5C 184.04,155.078 185.04,152.411 185.5,149.5C 186.906,149.027 187.573,148.027 187.5,146.5C 187.328,145.508 187.662,144.842 188.5,144.5C 191.664,142.853 193.33,140.186 193.5,136.5C 194.906,136.027 195.573,135.027 195.5,133.5C 195.5,132.167 195.5,130.833 195.5,129.5C 196.342,125.379 195.009,122.379 191.5,120.5C 190.262,118.786 189.595,116.786 189.5,114.5C 188.945,108.846 188.445,103.18 188,97.5C 187.329,96.7476 186.496,96.4142 185.5,96.5C 182.515,95.6743 179.849,94.341 177.5,92.5C 177.027,91.0937 176.027,90.427 174.5,90.5C 171.515,89.6743 168.849,88.341 166.5,86.5C 165.473,84.8058 164.139,83.4725 162.5,82.5C 164.437,77.4183 165.77,72.0849 166.5,66.5C 166.5,66.1667 166.5,65.8333 166.5,65.5C 176.628,66.7949 186.628,66.7949 196.5,65.5C 197.11,63.5659 198.11,61.8993 199.5,60.5C 201.587,59.4154 202.92,57.7488 203.5,55.5C 204.402,53.6593 205.736,52.326 207.5,51.5C 210.427,50.2427 212.761,48.2427 214.5,45.5C 215.914,43.9458 217.581,42.6125 219.5,41.5C 220.48,38.9135 220.813,36.2469 220.5,33.5C 220.5,26.5 220.5,19.5 220.5,12.5C 221.791,12.7373 222.791,12.404 223.5,11.5C 227.534,11.4835 231.201,10.4835 234.5,8.5 Z"/></g>
<g><path style="opacity:0.251" fill="#fee2cd" d="M 239.5,9.5 C 240.906,9.97306 241.573,10.9731 241.5,12.5C 240.094,12.0269 239.427,11.0269 239.5,9.5 Z"/></g>
<g><path style="opacity:0.639" fill="#fed0ac" d="M 153.5,16.5 C 152.581,19.0892 150.914,21.0892 148.5,22.5C 149.419,19.9108 151.086,17.9108 153.5,16.5 Z"/></g>
<g><path style="opacity:1" fill="#fdb882" d="M 244.5,18.5 C 246.083,20.6626 247.416,22.9959 248.5,25.5C 244.851,24.2423 243.518,21.9089 244.5,18.5 Z"/></g>
<g><path style="opacity:0.376" fill="#fedabf" d="M 148.5,22.5 C 148.573,24.0269 147.906,25.0269 146.5,25.5C 146.427,23.9731 147.094,22.9731 148.5,22.5 Z"/></g>
<g><path style="opacity:0.105" fill="#feebdb" d="M 223.5,11.5 C 222.791,12.404 221.791,12.7373 220.5,12.5C 220.5,19.5 220.5,26.5 220.5,33.5C 219.508,26.3524 219.175,19.0191 219.5,11.5C 220.833,11.5 222.167,11.5 223.5,11.5 Z"/></g>
<g><path style="opacity:0.369" fill="#fedbbf" d="M 146.5,25.5 C 146.573,27.0269 145.906,28.0269 144.5,28.5C 144.427,26.9731 145.094,25.9731 146.5,25.5 Z"/></g>
<g><path style="opacity:0.847" fill="#fed4b4" d="M 171.5,8.5 C 173.475,15.5714 174.809,22.9047 175.5,30.5C 175.267,31.9317 174.6,32.4317 173.5,32C 171.859,30.871 170.859,29.371 170.5,27.5C 171.458,27.9528 172.292,28.6195 173,29.5C 173.245,22.4585 172.745,15.4585 171.5,8.5 Z"/></g>
<g><path style="opacity:0.624" fill="#fdcca5" d="M 313.5,29.5 C 311.167,28.1667 308.833,28.1667 306.5,29.5C 308.956,25.7445 311.29,25.7445 313.5,29.5 Z"/></g>
<g><path style="opacity:0.353" fill="#fddbc0" d="M 144.5,28.5 C 144.573,30.0269 143.906,31.0269 142.5,31.5C 142.427,29.9731 143.094,28.9731 144.5,28.5 Z"/></g>
<g><path style="opacity:0.549" fill="#fedabe" d="M 304.5,30.5 C 304.027,31.9063 303.027,32.573 301.5,32.5C 301.973,31.0937 302.973,30.427 304.5,30.5 Z"/></g>
<g><path style="opacity:0.294" fill="#fde0c8" d="M 251.5,31.5 C 254.61,32.0885 257.61,32.7552 260.5,33.5C 256.988,34.0545 253.988,33.3878 251.5,31.5 Z"/></g>
<g><path style="opacity:0.102" fill="#fee0c9" d="M 261.5,33.5 C 265.924,33.2724 269.924,34.2724 273.5,36.5C 269.313,35.7867 265.313,34.7867 261.5,33.5 Z"/></g>
<g><path style="opacity:0.949" fill="#febf8f" d="M 321.5,37.5 C 322.812,38.1451 323.812,39.1451 324.5,40.5C 323.639,42.9106 322.306,44.9106 320.5,46.5C 320.449,44.4305 321.115,42.5971 322.5,41C 322.011,39.8615 321.678,38.6948 321.5,37.5 Z"/></g>
<g><path style="opacity:1" fill="#fdb883" d="M 298.5,34.5 C 297.972,35.7206 297.305,36.8873 296.5,38C 293.586,38.1334 291.253,39.3001 289.5,41.5C 286.885,42.2692 284.219,42.6025 281.5,42.5C 281.5,41.5 281.5,40.5 281.5,39.5C 283.17,39.7512 284.67,40.4178 286,41.5C 289.979,38.7624 294.145,36.429 298.5,34.5 Z"/></g>
<g><path style="opacity:0.998" fill="#fec395" d="M 137.5,40.5 C 137.913,43.3202 136.913,45.3202 134.5,46.5C 134.992,44.1815 135.992,42.1815 137.5,40.5 Z"/></g>
<g><path style="opacity:1" fill="#ffc396" d="M 155.5,41.5 C 154.696,44.4422 153.362,47.1089 151.5,49.5C 151.307,45.9634 152.64,43.2968 155.5,41.5 Z"/></g>
<g><path style="opacity:0.784" fill="#fdc395" d="M 214.5,45.5 C 212.761,48.2427 210.427,50.2427 207.5,51.5C 209.239,48.7573 211.573,46.7573 214.5,45.5 Z"/></g>
<g><path style="opacity:0.855" fill="#fec598" d="M 134.5,47.5 C 134.834,50.491 133.834,52.8243 131.5,54.5C 131.707,51.7594 132.707,49.4261 134.5,47.5 Z"/></g>
<g><path style="opacity:0.757" fill="#fed2b0" d="M 203.5,55.5 C 202.92,57.7488 201.587,59.4154 199.5,60.5C 200.08,58.2512 201.413,56.5846 203.5,55.5 Z"/></g>
<g><path style="opacity:0.306" fill="#fee0ca" d="M 149.5,54.5 C 149.598,56.5529 148.931,58.2196 147.5,59.5C 147.402,57.4471 148.069,55.7804 149.5,54.5 Z"/></g>
<g><path style="opacity:0.839" fill="#fdcca5" d="M 131.5,55.5 C 131.472,58.9164 130.472,61.9164 128.5,64.5C 128.928,61.2154 129.928,58.2154 131.5,55.5 Z"/></g>
<g><path style="opacity:0.004" fill="#feead9" d="M 146.5,62.5 C 146.435,65.4282 145.768,68.0948 144.5,70.5C 144.294,67.5049 144.96,64.8383 146.5,62.5 Z"/></g>
<g><path style="opacity:0.201" fill="#fedfc6" d="M 166.5,65.5 C 176.326,64.8948 186.326,64.8948 196.5,65.5C 186.628,66.7949 176.628,66.7949 166.5,65.5 Z"/></g>
<g><path style="opacity:0.776" fill="#fed6b6" d="M 166.5,66.5 C 165.77,72.0849 164.437,77.4183 162.5,82.5C 162.917,76.8302 164.251,71.4968 166.5,66.5 Z"/></g>
<g><path style="opacity:0.792" fill="#fecba5" d="M 144.5,70.5 C 144.142,73.6888 143.475,76.6888 142.5,79.5C 142.336,76.8127 142.503,74.146 143,71.5C 143.383,70.944 143.883,70.6107 144.5,70.5 Z"/></g>
<g><path style="opacity:0.706" fill="#fecda7" d="M 312.5,71.5 C 314.267,73.7916 315.267,76.4582 315.5,79.5C 313.415,77.3155 312.415,74.6489 312.5,71.5 Z"/></g>
<g><path style="opacity:0.933" fill="#fec9a1" d="M 162.5,82.5 C 164.139,83.4725 165.473,84.8058 166.5,86.5C 164.956,86.2969 163.622,85.6302 162.5,84.5C 161.227,83.7435 161.227,83.0768 162.5,82.5 Z"/></g>
<g><path style="opacity:1" fill="#fef0f5" d="M 244.5,90.5 C 246.337,90.6395 246.67,91.3061 245.5,92.5C 244.702,92.0431 244.369,91.3764 244.5,90.5 Z"/></g>
<g><path style="opacity:0.613" fill="#fecea9" d="M 142.5,79.5 C 142.5,87.8333 142.5,96.1667 142.5,104.5C 140.5,104.5 138.5,104.5 136.5,104.5C 137.568,103.566 138.901,103.232 140.5,103.5C 140.246,95.277 140.912,87.277 142.5,79.5 Z"/></g>
<g><path style="opacity:0.247" fill="#fee1cb" d="M 174.5,90.5 C 176.027,90.427 177.027,91.0937 177.5,92.5C 175.973,92.573 174.973,91.9063 174.5,90.5 Z"/></g>
<g><path style="opacity:0.331" fill="#fde3cf" d="M 126.5,74.5 C 125.743,84.4815 125.41,94.4815 125.5,104.5C 128.5,104.5 131.5,104.5 134.5,104.5C 131.375,105.479 128.042,105.813 124.5,105.5C 124.334,97.4931 124.5,89.4931 125,81.5C 125.186,78.9644 125.686,76.631 126.5,74.5 Z"/></g>
<g><path style="opacity:1" fill="#fde7e3" d="M 259.5,94.5 C 260.496,94.4142 261.329,94.7476 262,95.5C 262.333,97.5 262.667,99.5 263,101.5C 263.885,99 265.052,96.6667 266.5,94.5C 267.667,96.1667 268.833,97.8333 270,99.5C 270.36,97.5789 271.194,95.9122 272.5,94.5C 272.833,94.8333 273.167,95.1667 273.5,95.5C 272.366,98.0698 271.532,100.736 271,103.5C 270.282,104.451 269.449,104.617 268.5,104C 266.953,97.3771 265.786,97.2105 265,103.5C 264.282,104.451 263.449,104.617 262.5,104C 260.998,100.995 259.998,97.8286 259.5,94.5 Z"/></g>
<g><path style="opacity:0.408" fill="#fdd9bc" d="M 317.5,88.5 C 318.23,92.0606 318.897,95.7272 319.5,99.5C 317.586,96.3157 316.92,92.649 317.5,88.5 Z"/></g>
<g><path style="opacity:1" fill="#fdece6" d="M 231.5,90.5 C 232.376,90.3691 233.043,90.7025 233.5,91.5C 234.381,94.93 235.548,98.2633 237,101.5C 238.166,98.1724 239.332,94.8391 240.5,91.5C 241.167,90.1667 241.833,90.1667 242.5,91.5C 241.14,95.907 239.807,100.24 238.5,104.5C 237.5,104.5 236.5,104.5 235.5,104.5C 234.167,99.8333 232.833,95.1667 231.5,90.5 Z"/></g>
<g><path style="opacity:1" fill="#fbd7d6" d="M 244.5,94.5 C 245.777,95.6936 246.444,97.3603 246.5,99.5C 246.167,101.167 245.833,102.833 245.5,104.5C 244.513,101.232 244.18,97.8984 244.5,94.5 Z"/></g>
<g><path style="opacity:1" fill="#feeae2" d="M 250.5,94.5 C 252.527,94.3379 254.527,94.5045 256.5,95C 257.38,96.3561 257.714,97.8561 257.5,99.5C 255.076,99.1924 252.743,99.5258 250.5,100.5C 252.099,102.729 254.099,103.062 256.5,101.5C 257.711,102.274 257.711,103.107 256.5,104C 248.42,104.72 246.42,101.553 250.5,94.5 Z"/></g>
<g><path style="opacity:1" fill="#fbb77e" d="M 251.5,95.5 C 253.346,95.2222 254.68,95.8888 255.5,97.5C 253.833,98.8333 252.167,98.8333 250.5,97.5C 250.863,96.8165 251.196,96.1499 251.5,95.5 Z"/></g>
<g><path style="opacity:1" fill="#ffc192" d="M 328.5,104.5 C 330.819,104.992 332.819,105.992 334.5,107.5C 331.68,107.913 329.68,106.913 328.5,104.5 Z"/></g>
<g><path style="opacity:0.894" fill="#fed3b2" d="M 340.5,110.5 C 342.2,111.016 343.533,112.016 344.5,113.5C 343.484,116.282 342.484,118.949 341.5,121.5C 341.443,119.116 341.777,116.782 342.5,114.5C 341.775,113.133 341.108,111.8 340.5,110.5 Z"/></g>
<g><path style="opacity:0.125" fill="#fee1cb" d="M 185.5,96.5 C 186.496,96.4142 187.329,96.7476 188,97.5C 188.445,103.18 188.945,108.846 189.5,114.5C 188.224,108.554 186.891,102.554 185.5,96.5 Z"/></g>
<g><path style="opacity:1" fill="#6be251" d="M 99.5,120.5 C 99.1201,122.698 99.7868,124.365 101.5,125.5C 102.776,126.386 102.776,127.386 101.5,128.5C 86.1517,135.523 73.1517,145.523 62.5,158.5C 61.0937,158.973 60.427,159.973 60.5,161.5C 58.4854,164.869 56.4854,168.202 54.5,171.5C 53.0937,171.973 52.427,172.973 52.5,174.5C 51.7241,178.052 50.3908,181.386 48.5,184.5C 46.5275,187.084 45.5275,190.084 45.5,193.5C 45.5,194.167 45.5,194.833 45.5,195.5C 44.037,198.203 43.2037,201.203 43,204.5C 42.5004,211.158 42.3337,217.825 42.5,224.5C 43.791,224.737 44.791,224.404 45.5,223.5C 46.1667,223.5 46.8333,223.5 47.5,223.5C 49.099,223.232 50.4324,223.566 51.5,224.5C 49.8333,226.833 47.8333,228.833 45.5,230.5C 43.4131,231.585 42.0798,233.251 41.5,235.5C 40.3678,237.799 38.5345,239.132 36,239.5C 32.6469,238.572 29.4802,237.239 26.5,235.5C 25.8166,233.824 24.4832,233.157 22.5,233.5C 20.847,233.34 19.5137,232.674 18.5,231.5C 18.8333,230.833 19.1667,230.167 19.5,229.5C 21.3432,228.717 23.3432,228.05 25.5,227.5C 26.4591,224.378 26.4591,221.212 25.5,218C 26.1767,211.85 26.6767,205.683 27,199.5C 27.4061,196.258 28.2395,193.258 29.5,190.5C 31.0395,188.162 31.7062,185.495 31.5,182.5C 33.6545,180.383 34.6545,177.716 34.5,174.5C 34.5569,173.391 34.8902,172.391 35.5,171.5C 36.9063,171.027 37.573,170.027 37.5,168.5C 37.2627,167.209 37.596,166.209 38.5,165.5C 39.9063,165.027 40.573,164.027 40.5,162.5C 40.6596,160.847 41.3263,159.514 42.5,158.5C 43.9063,158.027 44.573,157.027 44.5,155.5C 45.9063,155.027 46.573,154.027 46.5,152.5C 48.5869,151.415 49.9202,149.749 50.5,147.5C 51.4194,144.911 53.086,142.911 55.5,141.5C 59.1667,138.5 62.5,135.167 65.5,131.5C 67.7488,130.92 69.4154,129.587 70.5,127.5C 72.4044,127.262 73.7377,126.262 74.5,124.5C 76.0269,124.573 77.0269,123.906 77.5,122.5C 78.6594,120.75 80.326,119.75 82.5,119.5C 84.0269,119.573 85.0269,118.906 85.5,117.5C 88.3837,115.473 91.5504,113.806 95,112.5C 95.772,112.645 96.4387,112.978 97,113.5C 97.8471,115.854 98.6805,118.188 99.5,120.5 Z"/></g>
<g><path style="opacity:0.686" fill="#bef2b1" d="M 85.5,117.5 C 85.0269,118.906 84.0269,119.573 82.5,119.5C 82.9731,118.094 83.9731,117.427 85.5,117.5 Z"/></g>
<g><path style="opacity:0.749" fill="#b6f1a7" d="M 77.5,122.5 C 77.0269,123.906 76.0269,124.573 74.5,124.5C 74.9731,123.094 75.9731,122.427 77.5,122.5 Z"/></g>
<g><path style="opacity:0.937" fill="#b2f0a2" d="M 99.5,120.5 C 100.537,121.93 101.204,123.597 101.5,125.5C 99.7868,124.365 99.1201,122.698 99.5,120.5 Z"/></g>
<g><path style="opacity:1" fill="#feb781" d="M 191.5,120.5 C 195.009,122.379 196.342,125.379 195.5,129.5C 193.375,126.912 192.042,123.912 191.5,120.5 Z"/></g>
<g><path style="opacity:0.008" fill="#feeada" d="M 341.5,121.5 C 341.435,124.428 340.768,127.095 339.5,129.5C 339.294,126.505 339.96,123.838 341.5,121.5 Z"/></g>
<g><path style="opacity:0.714" fill="#b1f0a2" d="M 74.5,124.5 C 73.7377,126.262 72.4044,127.262 70.5,127.5C 71.2623,125.738 72.5956,124.738 74.5,124.5 Z"/></g>
<g><path style="opacity:0.875" fill="#adef9d" d="M 70.5,127.5 C 69.4154,129.587 67.7488,130.92 65.5,131.5C 66.5846,129.413 68.2512,128.08 70.5,127.5 Z"/></g>
<g><path style="opacity:0.165" fill="#feecde" d="M 339.5,129.5 C 335.217,130.827 330.551,131.493 325.5,131.5C 320.654,131.499 315.988,131.166 311.5,130.5C 320.917,130.805 330.25,130.472 339.5,129.5 Z"/></g>
<g><path style="opacity:0.38" fill="#fed8bb" d="M 195.5,133.5 C 195.573,135.027 194.906,136.027 193.5,136.5C 193.427,134.973 194.094,133.973 195.5,133.5 Z"/></g>
<g><path style="opacity:0.667" fill="#c3f4b7" d="M 65.5,131.5 C 62.5,135.167 59.1667,138.5 55.5,141.5C 57.8333,137.167 61.1667,133.833 65.5,131.5 Z"/></g>
<g><path style="opacity:0.745" fill="#95ea82" d="M 137.5,141.5 C 137.5,141.167 137.5,140.833 137.5,140.5C 144.2,140.17 150.866,140.503 157.5,141.5C 158.309,143.071 158.643,144.738 158.5,146.5C 157.069,145.22 156.402,143.553 156.5,141.5C 150.167,141.5 143.833,141.5 137.5,141.5 Z"/></g>
<g><path style="opacity:1" fill="#fec192" d="M 193.5,136.5 C 193.33,140.186 191.664,142.853 188.5,144.5C 189.669,141.489 191.336,138.822 193.5,136.5 Z"/></g>
<g><path style="opacity:1" fill="#63e148" d="M 137.5,141.5 C 143.833,141.5 150.167,141.5 156.5,141.5C 156.402,143.553 157.069,145.22 158.5,146.5C 158.171,149.228 158.837,151.562 160.5,153.5C 161.15,155.435 161.483,157.435 161.5,159.5C 161.42,162.781 162.087,165.781 163.5,168.5C 164.995,168.989 166.329,169.655 167.5,170.5C 168.358,173.295 170.358,173.962 173.5,172.5C 181.198,175.343 187.865,179.676 193.5,185.5C 194.053,187.552 195.053,187.885 196.5,186.5C 196.833,186.5 197.167,186.5 197.5,186.5C 200.916,186.472 203.916,185.472 206.5,183.5C 207.568,182.566 208.901,182.232 210.5,182.5C 212.898,182.741 214.898,182.074 216.5,180.5C 218.903,180.552 221.236,180.219 223.5,179.5C 223.427,181.027 224.094,182.027 225.5,182.5C 226.338,182.842 226.672,183.508 226.5,184.5C 226.427,186.027 227.094,187.027 228.5,187.5C 229.338,187.842 229.672,188.508 229.5,189.5C 229.427,191.027 230.094,192.027 231.5,192.5C 230.438,194.099 230.438,195.766 231.5,197.5C 225.193,203.472 218.86,209.472 212.5,215.5C 211.254,218.293 211.587,220.96 213.5,223.5C 214.973,232.353 214.64,241.186 212.5,250C 212.868,252.535 214.201,254.368 216.5,255.5C 217.167,258.167 218.833,259.833 221.5,260.5C 225.167,263.5 228.5,266.833 231.5,270.5C 232.11,271.391 232.443,272.391 232.5,273.5C 231.737,275.368 230.737,277.035 229.5,278.5C 228.094,278.973 227.427,279.973 227.5,281.5C 227.34,283.153 226.674,284.486 225.5,285.5C 223.858,287.081 221.858,287.747 219.5,287.5C 219.167,287.5 218.833,287.5 218.5,287.5C 215.916,285.528 212.916,284.528 209.5,284.5C 209.167,284.5 208.833,284.5 208.5,284.5C 204.915,282.194 200.915,280.861 196.5,280.5C 190.732,284.894 184.732,289.06 178.5,293C 175.395,294.868 172.062,296.035 168.5,296.5C 166.447,296.402 164.78,297.069 163.5,298.5C 163.5,298.833 163.5,299.167 163.5,299.5C 162.087,302.219 161.42,305.219 161.5,308.5C 160.883,308.611 160.383,308.944 160,309.5C 159.503,311.81 159.337,314.143 159.5,316.5C 159.46,319.988 158.793,323.321 157.5,326.5C 150.833,326.5 144.167,326.5 137.5,326.5C 137.258,322.521 136.258,318.854 134.5,315.5C 133.699,313.958 133.366,312.292 133.5,310.5C 133.829,307.772 133.163,305.438 131.5,303.5C 131.25,301.059 130.25,299.059 128.5,297.5C 126.898,295.926 124.898,295.259 122.5,295.5C 118.849,294.341 115.515,292.674 112.5,290.5C 111.738,288.738 110.404,287.738 108.5,287.5C 106.596,287.262 105.262,286.262 104.5,284.5C 103.415,282.413 101.749,281.08 99.5,280.5C 91.6061,283.141 83.6061,285.474 75.5,287.5C 73.4352,287.483 71.4352,287.15 69.5,286.5C 68.3263,285.486 67.6596,284.153 67.5,282.5C 67.573,280.973 66.9063,279.973 65.5,279.5C 64.6618,279.158 64.3284,278.492 64.5,277.5C 63.5448,275.254 62.8782,272.921 62.5,270.5C 65.7642,268.906 68.4309,266.573 70.5,263.5C 75.5,260.5 79.5,256.5 82.5,251.5C 81.6993,249.958 81.366,248.292 81.5,246.5C 81.5,238.167 81.5,229.833 81.5,221.5C 81.3573,219.738 81.6906,218.071 82.5,216.5C 81.1431,214.814 79.8098,213.148 78.5,211.5C 76.4309,208.427 73.7642,206.094 70.5,204.5C 67.5,202.167 64.8333,199.5 62.5,196.5C 64.0399,194.078 65.0399,191.411 65.5,188.5C 65.3284,187.508 65.6618,186.842 66.5,186.5C 67.9063,186.027 68.573,185.027 68.5,183.5C 68.3284,182.508 68.6618,181.842 69.5,181.5C 72.0545,180.612 74.7212,180.279 77.5,180.5C 78.791,180.263 79.791,180.596 80.5,181.5C 80.9867,182.473 81.4867,183.473 82,184.5C 83.6995,183.594 85.5328,183.261 87.5,183.5C 91.7862,184.707 96.1195,185.707 100.5,186.5C 103.427,185.243 105.761,183.243 107.5,180.5C 110.65,177.421 114.317,175.087 118.5,173.5C 122.673,173.333 126.34,172 129.5,169.5C 131.048,169.179 131.715,168.179 131.5,166.5C 131.581,161.523 132.581,156.857 134.5,152.5C 135.945,149.063 136.945,145.397 137.5,141.5 Z"/></g>
<g><path style="opacity:0.012" fill="#fee9d8" d="M 301.5,141.5 C 301.573,143.027 300.906,144.027 299.5,144.5C 299.427,142.973 300.094,141.973 301.5,141.5 Z"/></g>
<g><path style="opacity:0.655" fill="#caf5c0" d="M 137.5,140.5 C 137.5,140.833 137.5,141.167 137.5,141.5C 136.945,145.397 135.945,149.063 134.5,152.5C 134.584,148.163 135.584,144.163 137.5,140.5 Z"/></g>
<g><path style="opacity:0.447" fill="#fdd3b2" d="M 187.5,146.5 C 187.573,148.027 186.906,149.027 185.5,149.5C 185.427,147.973 186.094,146.973 187.5,146.5 Z"/></g>
<g><path style="opacity:0.706" fill="#ccf5c1" d="M 158.5,146.5 C 159.612,148.599 160.279,150.933 160.5,153.5C 158.837,151.562 158.171,149.228 158.5,146.5 Z"/></g>
<g><path style="opacity:0.424" fill="#bff3b1" d="M 50.5,147.5 C 49.9202,149.749 48.5869,151.415 46.5,152.5C 47.0798,150.251 48.4131,148.585 50.5,147.5 Z"/></g>
<g><path style="opacity:1" fill="#fec090" d="M 185.5,149.5 C 185.04,152.411 184.04,155.078 182.5,157.5C 181.711,157.217 181.044,156.717 180.5,156C 182.066,153.674 183.732,151.508 185.5,149.5 Z"/></g>
<g><path style="opacity:0.365" fill="#cdf5c4" d="M 46.5,152.5 C 46.573,154.027 45.9063,155.027 44.5,155.5C 44.427,153.973 45.0937,152.973 46.5,152.5 Z"/></g>
<g><path style="opacity:0.276" fill="#fcd6b6" d="M 286.5,154.5 C 285.564,158.735 285.231,163.069 285.5,167.5C 284.837,165.527 284.504,163.361 284.5,161C 284.533,158.39 285.2,156.223 286.5,154.5 Z"/></g>
<g><path style="opacity:0.349" fill="#d0f6c7" d="M 44.5,155.5 C 44.573,157.027 43.9063,158.027 42.5,158.5C 42.427,156.973 43.0937,155.973 44.5,155.5 Z"/></g>
<g><path style="opacity:0.008" fill="#e1f9da" d="M 62.5,158.5 C 62.573,160.027 61.9063,161.027 60.5,161.5C 60.427,159.973 61.0937,158.973 62.5,158.5 Z"/></g>
<g><path style="opacity:0.231" fill="#fedfc6" d="M 233.5,160.5 C 235.898,160.259 237.898,160.926 239.5,162.5C 237.102,162.741 235.102,162.074 233.5,160.5 Z"/></g>
<g><path style="opacity:0.817" fill="#fdc598" d="M 240.5,162.5 C 244.846,162.334 249.179,162.501 253.5,163C 254.252,163.671 254.586,164.504 254.5,165.5C 253.711,165.217 253.044,164.717 252.5,164C 248.312,163.824 244.312,163.324 240.5,162.5 Z"/></g>
<g><path style="opacity:0.741" fill="#bef2b2" d="M 161.5,159.5 C 162.913,162.219 163.58,165.219 163.5,168.5C 162.087,165.781 161.42,162.781 161.5,159.5 Z"/></g>
<g><path style="opacity:0.278" fill="#d0f5c7" d="M 40.5,162.5 C 40.573,164.027 39.9063,165.027 38.5,165.5C 38.427,163.973 39.0937,162.973 40.5,162.5 Z"/></g>
<g><path style="opacity:0.816" fill="#ffd8ba" d="M 192.5,167.5 C 194.117,168.038 195.784,168.371 197.5,168.5C 195.466,171.205 193.799,170.872 192.5,167.5 Z"/></g>
<g><path style="opacity:0.694" fill="#c2f4b6" d="M 131.5,166.5 C 131.715,168.179 131.048,169.179 129.5,169.5C 129.932,168.29 130.599,167.29 131.5,166.5 Z"/></g>
<g><path style="opacity:0.204" fill="#d5f7cd" d="M 37.5,168.5 C 37.573,170.027 36.9063,171.027 35.5,171.5C 35.427,169.973 36.0937,168.973 37.5,168.5 Z"/></g>
<g><path style="opacity:1" fill="#57b0c9" d="M 512.5,299.5 C 514.153,314.11 514.82,328.777 514.5,343.5C 514.5,343.833 514.5,344.167 514.5,344.5C 513.011,348.236 512.344,352.236 512.5,356.5C 512.675,358.621 512.341,360.621 511.5,362.5C 510.585,365.455 509.085,368.122 507,370.5C 505.771,377.269 504.271,383.936 502.5,390.5C 496.083,407.686 486.416,422.686 473.5,435.5C 472.475,435.897 472.308,436.563 473,437.5C 474.833,439.333 476.667,441.167 478.5,443C 477.552,443.483 476.552,443.649 475.5,443.5C 469.504,442.501 463.504,441.501 457.5,440.5C 457.5,439.5 457.5,438.5 457.5,437.5C 457.562,432.924 456.895,428.591 455.5,424.5C 455.338,422.473 455.505,420.473 456,418.5C 456.383,419.056 456.883,419.389 457.5,419.5C 459.129,420.625 460.629,421.959 462,423.5C 480.466,402.564 491.966,378.231 496.5,350.5C 497.268,349.737 497.768,348.737 498,347.5C 498.499,342.511 498.666,337.511 498.5,332.5C 498.5,329.5 498.5,326.5 498.5,323.5C 498.844,316.918 498.177,310.584 496.5,304.5C 485.081,251.622 454.414,214.955 404.5,194.5C 401.374,192.01 397.708,190.677 393.5,190.5C 385.709,189.138 378.042,187.805 370.5,186.5C 360.347,185.506 350.014,185.172 339.5,185.5C 339.198,182.627 338.531,179.961 337.5,177.5C 337.5,177.167 337.5,176.833 337.5,176.5C 337.185,173.789 337.852,171.456 339.5,169.5C 402.477,165.244 452.31,188.577 489,239.5C 501.063,257.856 508.896,277.856 512.5,299.5 Z"/></g>
<g><path style="opacity:0.969" fill="#adef9c" d="M 129.5,169.5 C 126.34,172 122.673,173.333 118.5,173.5C 121.797,171.399 125.463,170.065 129.5,169.5 Z"/></g>
<g><path style="opacity:1" fill="#a1ed8e" d="M 167.5,170.5 C 169.786,170.595 171.786,171.262 173.5,172.5C 170.358,173.962 168.358,173.295 167.5,170.5 Z"/></g>
<g><path style="opacity:0.161" fill="#ddf8d7" d="M 54.5,171.5 C 54.573,173.027 53.9063,174.027 52.5,174.5C 52.427,172.973 53.0937,171.973 54.5,171.5 Z"/></g>
<g><path style="opacity:0.047" fill="#eef7f9" d="M 339.5,169.5 C 337.852,171.456 337.185,173.789 337.5,176.5C 336.532,174.393 336.198,172.059 336.5,169.5C 337.5,169.5 338.5,169.5 339.5,169.5 Z"/></g>
<g><path style="opacity:1" fill="#acef9b" d="M 77.5,180.5 C 74.7212,180.279 72.0545,180.612 69.5,181.5C 69.4176,179.748 70.2509,178.748 72,178.5C 74.0299,178.954 75.8632,179.62 77.5,180.5 Z"/></g>
<g><path style="opacity:0.906" fill="#b9f1aa" d="M 223.5,179.5 C 221.236,180.219 218.903,180.552 216.5,180.5C 218.137,179.62 219.97,178.954 222,178.5C 222.765,178.57 223.265,178.903 223.5,179.5 Z"/></g>
<g><path style="opacity:0.898" fill="#abef9a" d="M 34.5,174.5 C 34.6545,177.716 33.6545,180.383 31.5,182.5C 31.9802,179.557 32.9802,176.89 34.5,174.5 Z"/></g>
<g><path style="opacity:0.757" fill="#bdf2b1" d="M 216.5,180.5 C 214.898,182.074 212.898,182.741 210.5,182.5C 212.214,181.262 214.214,180.595 216.5,180.5 Z"/></g>
<g><path style="opacity:0.412" fill="#c2f3b7" d="M 223.5,179.5 C 224.906,179.973 225.573,180.973 225.5,182.5C 224.094,182.027 223.427,181.027 223.5,179.5 Z"/></g>
<g><path style="opacity:1" fill="#a2ed8e" d="M 80.5,181.5 C 83.0673,181.721 85.4006,182.388 87.5,183.5C 85.5328,183.261 83.6995,183.594 82,184.5C 81.4867,183.473 80.9867,182.473 80.5,181.5 Z"/></g>
<g><path style="opacity:0.91" fill="#9fec8c" d="M 107.5,180.5 C 105.761,183.243 103.427,185.243 100.5,186.5C 102.239,183.757 104.573,181.757 107.5,180.5 Z"/></g>
<g><path style="opacity:0.388" fill="#c6f4bb" d="M 68.5,183.5 C 68.573,185.027 67.9063,186.027 66.5,186.5C 66.427,184.973 67.0937,183.973 68.5,183.5 Z"/></g>
<g><path style="opacity:0.827" fill="#b2f0a3" d="M 206.5,183.5 C 203.916,185.472 200.916,186.472 197.5,186.5C 200.215,184.928 203.215,183.928 206.5,183.5 Z"/></g>
<g><path style="opacity:0.114" fill="#d8edf2" d="M 337.5,177.5 C 338.531,179.961 339.198,182.627 339.5,185.5C 350.014,185.172 360.347,185.506 370.5,186.5C 360.251,186.181 350.084,186.514 340,187.5C 337.714,184.635 336.88,181.302 337.5,177.5 Z"/></g>
<g><path style="opacity:0.851" fill="#b8f1aa" d="M 31.5,182.5 C 31.7062,185.495 31.0395,188.162 29.5,190.5C 29.5651,187.572 30.2318,184.905 31.5,182.5 Z"/></g>
<g><path style="opacity:0.333" fill="#c2f3b7" d="M 193.5,185.5 C 194.391,186.11 195.391,186.443 196.5,186.5C 195.053,187.885 194.053,187.552 193.5,185.5 Z"/></g>
<g><path style="opacity:0.357" fill="#caf5bf" d="M 226.5,184.5 C 227.906,184.973 228.573,185.973 228.5,187.5C 227.094,187.027 226.427,186.027 226.5,184.5 Z"/></g>
<g><path style="opacity:0.031" fill="#feeada" d="M 281.5,185.5 C 279.095,186.768 276.428,187.435 273.5,187.5C 275.838,185.96 278.505,185.294 281.5,185.5 Z"/></g>
<g><path style="opacity:0.416" fill="#c9f5bf" d="M 48.5,184.5 C 48.0719,187.785 47.0719,190.785 45.5,193.5C 45.5275,190.084 46.5275,187.084 48.5,184.5 Z"/></g>
<g><path style="opacity:0.82" fill="#b1dae5" d="M 393.5,190.5 C 397.708,190.677 401.374,192.01 404.5,194.5C 400.605,193.538 396.939,192.204 393.5,190.5 Z"/></g>
<g><path style="opacity:0.294" fill="#d1f7c8" d="M 229.5,189.5 C 230.906,189.973 231.573,190.973 231.5,192.5C 230.094,192.027 229.427,191.027 229.5,189.5 Z"/></g>
<g><path style="opacity:1" fill="#a5ed92" d="M 65.5,188.5 C 65.0399,191.411 64.0399,194.078 62.5,196.5C 61.7041,193.381 62.7041,190.715 65.5,188.5 Z"/></g>
<g><path style="opacity:1" fill="#aeef9b" d="M 231.5,192.5 C 233.922,194.286 233.922,195.952 231.5,197.5C 230.438,195.766 230.438,194.099 231.5,192.5 Z"/></g>
<g><path style="opacity:0.689" fill="#b3dbe6" d="M 348.5,206.5 C 347.566,205.432 347.232,204.099 347.5,202.5C 340.833,202.5 334.167,202.5 327.5,202.5C 327.768,204.099 327.434,205.432 326.5,206.5C 326.261,204.533 326.594,202.699 327.5,201C 334.167,200.333 340.833,200.333 347.5,201C 348.406,202.699 348.739,204.533 348.5,206.5 Z"/></g>
<g><path style="opacity:1" fill="#4dacc6" d="M 348.5,206.5 C 348.5,206.833 348.5,207.167 348.5,207.5C 348.449,214.578 349.782,221.245 352.5,227.5C 355.6,228.699 358.6,230.199 361.5,232C 365.848,232.465 370.181,232.965 374.5,233.5C 381.12,235.56 387.286,238.56 393,242.5C 399.926,236.953 406.759,231.286 413.5,225.5C 419.019,229.762 424.352,234.262 429.5,239C 424.788,246.255 420.454,253.755 416.5,261.5C 426.09,272.676 433.09,285.342 437.5,299.5C 445.99,300.33 454.657,300.83 463.5,301C 464.099,302.622 464.766,304.122 465.5,305.5C 466.269,310.043 467.269,314.543 468.5,319C 460.371,322.655 452.038,325.821 443.5,328.5C 441.547,334.074 440.88,340.074 441.5,346.5C 440.74,355.116 438.74,363.45 435.5,371.5C 441.509,376.179 447.175,381.179 452.5,386.5C 452.075,390.674 450.575,394.34 448,397.5C 447.505,399.473 447.338,401.473 447.5,403.5C 447.144,404.87 446.31,405.87 445,406.5C 437.858,403.923 430.691,401.423 423.5,399C 422.167,398.333 420.833,398.333 419.5,399C 416.734,402.522 413.734,405.855 410.5,409C 406.239,413.102 401.572,416.602 396.5,419.5C 395.85,419.196 395.183,418.863 394.5,418.5C 392.098,420.473 389.431,421.973 386.5,423C 386.545,425.636 386.712,428.47 387,431.5C 387.279,434.457 388.113,437.123 389.5,439.5C 391.046,443.763 391.379,448.097 390.5,452.5C 384.828,454.502 379.161,456.502 373.5,458.5C 372.833,458.167 372.167,457.833 371.5,457.5C 367.741,450.31 363.741,443.31 359.5,436.5C 358.378,435.844 357.045,435.511 355.5,435.5C 350.322,435.934 345.322,436.601 340.5,437.5C 338.5,437.5 336.5,437.5 334.5,437.5C 329.852,436.546 325.019,435.88 320,435.5C 318.293,435.508 316.793,435.842 315.5,436.5C 311.485,443.202 307.485,449.869 303.5,456.5C 301.302,457.067 298.969,457.067 296.5,456.5C 292.45,455.372 288.45,454.039 284.5,452.5C 284.167,451.5 283.833,450.5 283.5,449.5C 284.875,441.472 286.042,433.472 287,425.5C 279.121,421.448 272.288,416.115 266.5,409.5C 265.089,407.086 263.089,405.419 260.5,404.5C 259.04,402.537 257.373,400.704 255.5,399C 252.122,398.952 248.789,399.452 245.5,400.5C 240.346,400.202 235.346,401.036 230.5,403C 228.459,401.758 227.293,399.925 227,397.5C 225.6,396.252 224.1,395.252 222.5,394.5C 223.535,392.795 223.535,391.128 222.5,389.5C 223.804,386.87 225.47,384.537 227.5,382.5C 231.626,378.876 235.626,375.042 239.5,371C 236.709,365.129 235.042,358.962 234.5,352.5C 234.436,344.099 233.436,336.099 231.5,328.5C 223.946,326.387 216.613,323.721 209.5,320.5C 208.982,319.423 208.648,318.256 208.5,317C 209.864,311.918 210.531,306.752 210.5,301.5C 219.129,299.85 228.129,298.85 237.5,298.5C 242.195,284.768 249.195,272.435 258.5,261.5C 254.546,253.755 250.212,246.255 245.5,239C 250.313,234.43 255.313,230.097 260.5,226C 261.167,225.333 261.833,225.333 262.5,226C 268.907,231.619 275.407,237.119 282,242.5C 294.339,234.442 307.839,229.442 322.5,227.5C 323.583,220.42 324.916,213.42 326.5,206.5C 327.434,205.432 327.768,204.099 327.5,202.5C 334.167,202.5 340.833,202.5 347.5,202.5C 347.232,204.099 347.566,205.432 348.5,206.5 Z"/></g>
<g><path style="opacity:0.722" fill="#cbf5c1" d="M 70.5,204.5 C 73.7642,206.094 76.4309,208.427 78.5,211.5C 75.2358,209.906 72.5691,207.573 70.5,204.5 Z"/></g>
<g><path style="opacity:0.235" fill="#d4f7cd" d="M 45.5,195.5 C 44.4126,201.948 43.7459,208.448 43.5,215C 43.5191,218.252 44.1858,221.085 45.5,223.5C 44.791,224.404 43.791,224.737 42.5,224.5C 42.3337,217.825 42.5004,211.158 43,204.5C 43.2037,201.203 44.037,198.203 45.5,195.5 Z"/></g>
<g><path style="opacity:0.882" fill="#a3d3e0" d="M 348.5,207.5 C 350.451,213.924 351.785,220.591 352.5,227.5C 349.782,221.245 348.449,214.578 348.5,207.5 Z"/></g>
<g><path style="opacity:0.633" fill="#ccf5c2" d="M 51.5,224.5 C 50.4324,223.566 49.099,223.232 47.5,223.5C 48.9972,222.694 50.6639,222.028 52.5,221.5C 53.6653,222.86 53.332,223.86 51.5,224.5 Z"/></g>
<g><path style="opacity:0.506" fill="#bef2b2" d="M 212.5,215.5 C 212.833,218.167 213.167,220.833 213.5,223.5C 211.587,220.96 211.254,218.293 212.5,215.5 Z"/></g>
<g><path style="opacity:0.499" fill="#d8f7d6" d="M 103.5,235.5 C 101.308,228.415 103.975,225.249 111.5,226C 112.451,226.718 112.617,227.551 112,228.5C 107.567,226.338 105.4,227.671 105.5,232.5C 105.4,237.329 107.567,238.662 112,236.5C 112.667,237.167 112.667,237.833 112,238.5C 110.274,239.576 108.441,239.743 106.5,239C 104.574,238.578 103.574,237.411 103.5,235.5 Z"/></g>
<g><path style="opacity:1" fill="#d8f9ea" d="M 164.5,224.5 C 165.809,226.571 166.475,229.071 166.5,232C 166.167,234.5 165.833,237 165.5,239.5C 164.506,234.544 164.173,229.544 164.5,224.5 Z"/></g>
<g><path style="opacity:1" fill="#e9f9d6" d="M 169.5,224.5 C 170.809,226.571 171.475,229.071 171.5,232C 171.167,234.5 170.833,237 170.5,239.5C 169.506,234.544 169.173,229.544 169.5,224.5 Z"/></g>
<g><path style="opacity:1" fill="#d9f9e6" d="M 116.5,229.5 C 120.565,228.578 122.898,230.078 123.5,234C 122.616,239.716 119.783,240.883 115,237.5C 114.109,234.502 114.609,231.836 116.5,229.5 Z"/></g>
<g><path style="opacity:1" fill="#e8f9e0" d="M 145.5,229.5 C 147.527,229.338 149.527,229.505 151.5,230C 150.234,230.309 149.067,230.809 148,231.5C 147.818,234.226 147.318,236.893 146.5,239.5C 145.513,236.232 145.18,232.898 145.5,229.5 Z"/></g>
<g><path style="opacity:1" fill="#e2f9e5" d="M 154.5,229.5 C 162.888,229.362 164.554,232.529 159.5,239C 153.498,239.993 151.332,237.493 153,231.5C 153.717,230.956 154.217,230.289 154.5,229.5 Z"/></g>
<g><path style="opacity:0.522" fill="#c5f4ba" d="M 19.5,229.5 C 19.1667,230.167 18.8333,230.833 18.5,231.5C 17.6236,231.631 16.9569,231.298 16.5,230.5C 17.325,229.614 18.325,229.281 19.5,229.5 Z"/></g>
<g><path style="opacity:1" fill="#ecfdf4" d="M 185.5,229.5 C 187.199,229.34 188.866,229.506 190.5,230C 189.069,230.465 187.903,231.299 187,232.5C 186.667,234.833 186.333,237.167 186,239.5C 185.502,236.183 185.335,232.85 185.5,229.5 Z"/></g>
<g><path style="opacity:0.998" fill="#99cddd" d="M 352.5,227.5 C 360.19,228.587 367.524,230.587 374.5,233.5C 370.181,232.965 365.848,232.465 361.5,232C 358.6,230.199 355.6,228.699 352.5,227.5 Z"/></g>
<g><path style="opacity:1" fill="#e4f9e3" d="M 126.5,229.5 C 128.152,230.807 129.818,230.807 131.5,229.5C 133.029,229.529 134.196,230.196 135,231.5C 134.995,242.167 134.328,242.167 133,231.5C 131.413,230.273 130.079,230.606 129,232.5C 128.814,234.9 128.314,237.234 127.5,239.5C 126.513,236.232 126.18,232.898 126.5,229.5 Z"/></g>
<g><path style="opacity:1" fill="#dbf9e5" d="M 143.5,230.5 C 142.5,230.5 141.5,230.5 140.5,230.5C 140.198,233.059 140.532,235.393 141.5,237.5C 144.083,238.092 144.083,238.758 141.5,239.5C 140.558,239.392 139.725,239.059 139,238.5C 138.782,235.574 138.282,232.74 137.5,230C 138.071,228.795 138.738,227.628 139.5,226.5C 140.386,227.325 140.719,228.325 140.5,229.5C 141.791,229.263 142.791,229.596 143.5,230.5 Z"/></g>
<g><path style="opacity:1" fill="#6fe24e" d="M 117.5,230.5 C 118.822,230.33 119.989,230.663 121,231.5C 121.495,233.473 121.662,235.473 121.5,237.5C 116.59,237.424 115.257,235.09 117.5,230.5 Z"/></g>
<g><path style="opacity:1" fill="#b9ea74" d="M 143.5,230.5 C 141.852,232.456 141.185,234.789 141.5,237.5C 140.532,235.393 140.198,233.059 140.5,230.5C 141.5,230.5 142.5,230.5 143.5,230.5 Z"/></g>
<g><path style="opacity:1" fill="#6ee256" d="M 155.5,230.5 C 159.976,230.8 161.31,232.967 159.5,237C 154.57,237.427 153.237,235.26 155.5,230.5 Z"/></g>
<g><path style="opacity:0.941" fill="#b7f1a7" d="M 22.5,233.5 C 24.4832,233.157 25.8166,233.824 26.5,235.5C 24.847,235.34 23.5137,234.674 22.5,233.5 Z"/></g>
<g><path style="opacity:0.043" fill="#e0f9d9" d="M 45.5,230.5 C 44.9202,232.749 43.5869,234.415 41.5,235.5C 42.0798,233.251 43.4131,231.585 45.5,230.5 Z"/></g>
<g><path style="opacity:0.847" fill="#b3f0a3" d="M 81.5,221.5 C 81.5,229.833 81.5,238.167 81.5,246.5C 78.8801,238.16 78.8801,229.827 81.5,221.5 Z"/></g>
<g><path style="opacity:1" fill="#e2f9e2" d="M 175.5,229.5 C 179.851,228.533 182.185,230.2 182.5,234.5C 173.395,235.141 173.395,236.308 182.5,238C 180.386,239.518 178.053,239.851 175.5,239C 172.888,235.836 172.888,232.669 175.5,229.5 Z"/></g>
<g><path style="opacity:1" fill="#8be775" d="M 176.5,230.5 C 178.346,230.222 179.68,230.889 180.5,232.5C 178.833,233.833 177.167,233.833 175.5,232.5C 175.863,231.817 176.196,231.15 176.5,230.5 Z"/></g>
<g><path style="opacity:0.522" fill="#d4f7cc" d="M 216.5,255.5 C 218.5,256.833 220.167,258.5 221.5,260.5C 218.833,259.833 217.167,258.167 216.5,255.5 Z"/></g>
<g><path style="opacity:0.961" fill="#97eb82" d="M 82.5,251.5 C 79.5,256.5 75.5,260.5 70.5,263.5C 74.1667,259.167 78.1667,255.167 82.5,251.5 Z"/></g>
<g><path style="opacity:0.643" fill="#bdf2b0" d="M 70.5,263.5 C 68.4309,266.573 65.7642,268.906 62.5,270.5C 64.5691,267.427 67.2358,265.094 70.5,263.5 Z"/></g>
<g><path style="opacity:0.02" fill="#effbec" d="M 231.5,270.5 C 233.552,271.053 233.885,272.053 232.5,273.5C 232.443,272.391 232.11,271.391 231.5,270.5 Z"/></g>
<g><path style="opacity:0.086" fill="#d9f7d1" d="M 62.5,270.5 C 62.8782,272.921 63.5448,275.254 64.5,277.5C 61.782,275.618 61.1153,273.285 62.5,270.5 Z"/></g>
<g><path style="opacity:0.753" fill="#c7f4bc" d="M 99.5,280.5 C 101.749,281.08 103.415,282.413 104.5,284.5C 102.251,283.92 100.585,282.587 99.5,280.5 Z"/></g>
<g><path style="opacity:0.878" fill="#bbf2ae" d="M 196.5,280.5 C 200.915,280.861 204.915,282.194 208.5,284.5C 204.216,283.739 200.216,282.405 196.5,280.5 Z"/></g>
<g><path style="opacity:0.137" fill="#dff9d9" d="M 229.5,278.5 C 229.573,280.027 228.906,281.027 227.5,281.5C 227.427,279.973 228.094,278.973 229.5,278.5 Z"/></g>
<g><path style="opacity:0.149" fill="#ddf8d7" d="M 65.5,279.5 C 66.9063,279.973 67.573,280.973 67.5,282.5C 66.0937,282.027 65.427,281.027 65.5,279.5 Z"/></g>
<g><path style="opacity:0.812" fill="#bcf2ae" d="M 209.5,284.5 C 212.916,284.528 215.916,285.528 218.5,287.5C 215.215,287.072 212.215,286.072 209.5,284.5 Z"/></g>
<g><path style="opacity:0.918" fill="#b5f1a5" d="M 69.5,286.5 C 71.4352,287.15 73.4352,287.483 75.5,287.5C 74.9032,288.139 74.0698,288.472 73,288.5C 71.3009,288.613 70.1342,287.947 69.5,286.5 Z"/></g>
<g><path style="opacity:0.106" fill="#d6f7cd" d="M 225.5,285.5 C 224.514,289.871 222.514,290.538 219.5,287.5C 221.858,287.747 223.858,287.081 225.5,285.5 Z"/></g>
<g><path style="opacity:0.604" fill="#bcf2ae" d="M 108.5,287.5 C 110.404,287.738 111.738,288.738 112.5,290.5C 110.596,290.262 109.262,289.262 108.5,287.5 Z"/></g>
<g><path style="opacity:0.765" fill="#bdf2b0" d="M 122.5,295.5 C 124.898,295.259 126.898,295.926 128.5,297.5C 126.214,297.405 124.214,296.738 122.5,295.5 Z"/></g>
<g><path style="opacity:0.067" fill="#dff9d9" d="M 168.5,296.5 C 167.22,297.931 165.553,298.598 163.5,298.5C 164.78,297.069 166.447,296.402 168.5,296.5 Z"/></g>
<g><path style="opacity:0.572" fill="#a0d3e1" d="M 437.5,299.5 C 446.506,299.334 455.506,299.5 464.5,300C 465.406,301.699 465.739,303.533 465.5,305.5C 464.766,304.122 464.099,302.622 463.5,301C 454.657,300.83 445.99,300.33 437.5,299.5 Z"/></g>
<g><path style="opacity:0.059" fill="#dff9d9" d="M 163.5,299.5 C 163.58,302.781 162.913,305.781 161.5,308.5C 161.42,305.219 162.087,302.219 163.5,299.5 Z"/></g>
<g><path style="opacity:0.522" fill="#c9f5be" d="M 131.5,303.5 C 133.163,305.438 133.829,307.772 133.5,310.5C 132.388,308.401 131.721,306.067 131.5,303.5 Z"/></g>
<g><path style="opacity:0.898" fill="#a6d4e2" d="M 210.5,301.5 C 210.531,306.752 209.864,311.918 208.5,317C 208.648,318.256 208.982,319.423 209.5,320.5C 208.235,319.486 207.569,317.986 207.5,316C 207.948,310.923 208.948,306.09 210.5,301.5 Z"/></g>
<g><path style="opacity:0.906" fill="#b0efa0" d="M 161.5,308.5 C 161.198,311.373 160.531,314.039 159.5,316.5C 159.337,314.143 159.503,311.81 160,309.5C 160.383,308.944 160.883,308.611 161.5,308.5 Z"/></g>
<g><path style="opacity:0.01" fill="#e3f2f6" d="M 496.5,304.5 C 498.177,310.584 498.844,316.918 498.5,323.5C 497.457,317.35 496.79,311.016 496.5,304.5 Z"/></g>
<g><path style="opacity:1" fill="#e6e6e4" d="M 362.5,320.5 C 363.809,322.571 364.475,325.071 364.5,328C 364.167,330.5 363.833,333 363.5,335.5C 362.506,330.544 362.173,325.544 362.5,320.5 Z"/></g>
<g><path style="opacity:1" fill="#deecee" d="M 309.5,321.5 C 310.978,321.238 312.311,321.571 313.5,322.5C 314.667,325.5 315.833,328.5 317,331.5C 319.027,328.779 320.527,325.779 321.5,322.5C 322.689,321.571 324.022,321.238 325.5,321.5C 325.827,326.214 325.493,330.88 324.5,335.5C 323.673,331.541 323.173,327.541 323,323.5C 321.977,327.879 320.144,331.879 317.5,335.5C 315.399,332.074 313.566,328.407 312,324.5C 311.825,328.211 311.325,331.878 310.5,335.5C 309.507,330.88 309.173,326.214 309.5,321.5 Z"/></g>
<g><path style="opacity:0.321" fill="#cce7ee" d="M 512.5,299.5 C 513.813,303.944 514.646,308.611 515,313.5C 515.825,323.675 515.658,333.675 514.5,343.5C 514.82,328.777 514.153,314.11 512.5,299.5 Z"/></g>
<g><path style="opacity:1" fill="#e1eef1" d="M 330.5,325.5 C 337.649,325.703 339.315,328.869 335.5,335C 329,336.5 326.5,334 328,327.5C 328.995,326.934 329.828,326.267 330.5,325.5 Z"/></g>
<g><path style="opacity:0.128" fill="#e5fae1" d="M 134.5,315.5 C 136.258,318.854 137.258,322.521 137.5,326.5C 144.167,326.5 150.833,326.5 157.5,326.5C 150.687,327.491 143.687,327.825 136.5,327.5C 135.833,323.5 135.167,319.5 134.5,315.5 Z"/></g>
<g><path style="opacity:1" fill="#ebf2f2" d="M 346.5,321.5 C 347.805,323.397 348.471,325.731 348.5,328.5C 348.167,330.833 347.833,333.167 347.5,335.5C 345.657,335.245 343.657,335.078 341.5,335C 339.556,332.847 339.056,330.347 340,327.5C 341.733,325.398 343.733,325.065 346,326.5C 346.494,324.866 346.66,323.199 346.5,321.5 Z"/></g>
<g><path style="opacity:1" fill="#55b0ca" d="M 330.5,327.5 C 334.908,327.062 336.575,329.062 335.5,333.5C 330.074,334.416 328.407,332.416 330.5,327.5 Z"/></g>
<g><path style="opacity:1" fill="#58b1cb" d="M 342.5,327.5 C 344.948,327.085 346.281,328.085 346.5,330.5C 344.817,335.385 343.15,335.551 341.5,331C 341.648,329.744 341.982,328.577 342.5,327.5 Z"/></g>
<g><path style="opacity:0.597" fill="#aad7e3" d="M 443.5,328.5 C 442.872,334.601 442.205,340.601 441.5,346.5C 440.88,340.074 441.547,334.074 443.5,328.5 Z"/></g>
<g><path style="opacity:1" fill="#f3f6f6" d="M 353.5,325.5 C 357.56,324.848 359.56,326.515 359.5,330.5C 357.076,330.192 354.743,330.526 352.5,331.5C 354.153,334.439 356.486,335.272 359.5,334C 355.078,336.689 352.411,335.522 351.5,330.5C 351.437,328.486 352.103,326.819 353.5,325.5 Z"/></g>
<g><path style="opacity:1" fill="#56b0cb" d="M 353.5,327.5 C 354.978,327.238 356.311,327.571 357.5,328.5C 356.833,328.833 356.167,329.167 355.5,329.5C 354.287,329.253 353.62,328.586 353.5,327.5 Z"/></g>
<g><path style="opacity:0.714" fill="#c7e4ec" d="M 498.5,332.5 C 498.666,337.511 498.499,342.511 498,347.5C 497.768,348.737 497.268,349.737 496.5,350.5C 496.918,344.331 497.585,338.331 498.5,332.5 Z"/></g>
<g><path style="opacity:0.373" fill="#b3dbe6" d="M 231.5,328.5 C 233.436,336.099 234.436,344.099 234.5,352.5C 233.032,344.652 232.032,336.652 231.5,328.5 Z"/></g>
<g><path style="opacity:0.427" fill="#c0e1ea" d="M 514.5,344.5 C 514.656,348.764 513.989,352.764 512.5,356.5C 512.344,352.236 513.011,348.236 514.5,344.5 Z"/></g>
<g><path style="opacity:0.988" fill="#92cada" d="M 511.5,362.5 C 510.026,372.424 507.026,381.757 502.5,390.5C 504.271,383.936 505.771,377.269 507,370.5C 509.085,368.122 510.585,365.455 511.5,362.5 Z"/></g>
<g><path style="opacity:0.99" fill="#8ec8d9" d="M 227.5,382.5 C 225.47,384.537 223.804,386.87 222.5,389.5C 223.535,391.128 223.535,392.795 222.5,394.5C 221.14,392.954 220.14,391.12 219.5,389C 221.751,386.242 224.417,384.076 227.5,382.5 Z"/></g>
<g><path style="opacity:0.983" fill="#8fc8d9" d="M 452.5,386.5 C 454.926,387.353 455.76,389.019 455,391.5C 452.241,395.407 449.741,399.407 447.5,403.5C 447.338,401.473 447.505,399.473 448,397.5C 450.575,394.34 452.075,390.674 452.5,386.5 Z"/></g>
<g><path style="opacity:0.988" fill="#8bc6d8" d="M 222.5,394.5 C 224.1,395.252 225.6,396.252 227,397.5C 227.293,399.925 228.459,401.758 230.5,403C 235.346,401.036 240.346,400.202 245.5,400.5C 240.706,402.72 235.706,404.72 230.5,406.5C 226.858,403.234 224.191,399.234 222.5,394.5 Z"/></g>
<g><path style="opacity:0.584" fill="#c7e4ec" d="M 260.5,404.5 C 263.089,405.419 265.089,407.086 266.5,409.5C 263.911,408.581 261.911,406.914 260.5,404.5 Z"/></g>
<g><path style="opacity:0.997" fill="#92cadb" d="M 396.5,419.5 C 393.821,421.601 390.988,423.601 388,425.5C 388.379,430.127 388.879,434.793 389.5,439.5C 388.113,437.123 387.279,434.457 387,431.5C 386.712,428.47 386.545,425.636 386.5,423C 389.431,421.973 392.098,420.473 394.5,418.5C 395.183,418.863 395.85,419.196 396.5,419.5 Z"/></g>
<g><path style="opacity:0.01" fill="#deeff4" d="M 457.5,419.5 C 456.883,419.389 456.383,419.056 456,418.5C 455.505,420.473 455.338,422.473 455.5,424.5C 454.2,421.976 454.2,419.309 455.5,416.5C 456.919,417.005 457.585,418.005 457.5,419.5 Z"/></g>
<g><path style="opacity:0.341" fill="#c7e5ed" d="M 455.5,424.5 C 456.895,428.591 457.562,432.924 457.5,437.5C 456.105,433.409 455.438,429.076 455.5,424.5 Z"/></g>
<g><path style="opacity:0.847" fill="#a9d6e3" d="M 315.5,436.5 C 316.793,435.842 318.293,435.508 320,435.5C 325.019,435.88 329.852,436.546 334.5,437.5C 328.149,437.443 321.815,437.11 315.5,436.5 Z"/></g>
<g><path style="opacity:0.463" fill="#b8dee8" d="M 359.5,436.5 C 353.185,437.11 346.851,437.443 340.5,437.5C 345.322,436.601 350.322,435.934 355.5,435.5C 357.045,435.511 358.378,435.844 359.5,436.5 Z"/></g>
<g><path style="opacity:0.788" fill="#c2e2eb" d="M 473.5,435.5 C 475.999,438.169 478.332,441.002 480.5,444C 478.613,444.78 476.946,444.613 475.5,443.5C 476.552,443.649 477.552,443.483 478.5,443C 476.667,441.167 474.833,439.333 473,437.5C 472.308,436.563 472.475,435.897 473.5,435.5 Z"/></g>
<g><path style="opacity:0.012" fill="#c9e5ed" d="M 296.5,456.5 C 298.969,457.067 301.302,457.067 303.5,456.5C 303.38,457.586 302.713,458.253 301.5,458.5C 299.578,458.199 297.912,457.533 296.5,456.5 Z"/></g>
</svg>
